<svg width="25" height="38" viewBox="0 0 25 38" fill="none" xmlns="http://www.w3.org/2000/svg">
<path d="M24.6533 4.24827C24.329 3.75163 23.8552 3.73736 23.3153 3.72111C23.2541 3.71927 23.1921 3.7174 23.1294 3.7148C23.0816 3.7126 23.0289 3.71345 22.9738 3.71434C22.7548 3.71785 22.4987 3.72197 22.3697 3.53799C22.2201 3.3247 22.2343 2.91251 22.246 2.57222C22.2497 2.4647 22.2531 2.36429 22.2511 2.27967C22.2301 1.48919 22.1862 0.649502 21.8811 0.368794C21.651 0.158184 20.9626 0.187361 20.3278 0.214269C20.122 0.222992 19.9218 0.231477 19.7447 0.231477H6.23175C5.95968 0.231477 5.67448 0.209323 5.39427 0.187555C4.84824 0.14514 4.32112 0.104193 3.94679 0.231477C3.40354 0.417105 3.36675 1.39254 3.33212 2.31106L3.33025 2.36048C3.30117 3.11876 3.11325 3.70387 2.49045 3.64493C1.76608 3.57749 1.04529 3.55622 0.717778 4.21181C0.330981 4.98749 0.410754 5.79945 0.553638 7.2538C0.574049 7.46154 0.595747 7.6824 0.617557 7.91813H24.8622C24.8761 7.74583 24.8908 7.57574 24.9053 7.4084C25.0189 6.09994 25.1178 4.95989 24.6533 4.24827Z" fill="#8047F8"/>
<path fill-rule="evenodd" clip-rule="evenodd" d="M2.50566 9.36055C2.88431 14.4853 3.25883 19.616 3.63336 24.7467L3.63359 24.7499C3.83694 27.5357 4.0403 30.3215 4.24432 33.1065H5.01791C5.07062 33.5424 5.13094 34.0806 5.19453 34.648C5.32362 35.7998 5.46623 37.0723 5.58613 37.8542H5.67169C6.45966 37.5659 11.907 35.2375 11.9094 25.9677C11.9084 25.9412 11.9093 25.9148 11.912 25.8886H10.5662C10.5011 25.888 10.4379 25.8662 10.3865 25.8267C10.3351 25.7871 10.2982 25.732 10.2816 25.6697C10.1504 25.3457 10.0447 25.0123 9.96527 24.6723C9.17356 25.1194 8.54485 25.8022 8.16875 26.6233C7.81173 25.7824 7.765 24.8441 8.03672 23.9726C8.30845 23.101 8.88135 22.3515 9.65531 21.8552C9.66528 19.1502 10.6781 16.5427 12.5019 14.5262L12.5304 14.5012C12.5834 14.4554 12.6513 14.4299 12.7216 14.4293C12.7624 14.4297 12.8026 14.4383 12.8397 14.4548C12.8773 14.4715 12.9109 14.4959 12.9384 14.5262C14.7836 16.5454 15.791 19.178 15.7597 21.8989C16.5481 22.3815 17.1327 23.1304 17.4049 24.0067C17.6771 24.883 17.6185 25.8272 17.2399 26.664C16.8659 25.8416 16.2366 25.1582 15.4434 24.7129C15.395 25.0425 15.3057 25.3648 15.1777 25.6728C15.1335 25.8042 15.0449 25.8886 14.9563 25.8886H13.5211C13.5234 25.9043 13.525 25.9201 13.5259 25.9359L13.5265 25.9396V25.9472C13.527 25.9609 13.527 25.9746 13.5265 25.9883C13.5461 35.5242 19.3378 37.6887 19.826 37.8542H19.993C20.0356 37.1031 20.1744 36.0667 20.3097 35.0563C20.4029 34.36 20.4945 33.6761 20.5518 33.1065H21.3343C21.5848 29.5985 21.8424 26.1004 22.1 22.6023L22.1002 22.6004L22.1002 22.5993C22.4298 18.1248 22.7593 13.6501 23.0739 9.15457H2.55577C2.49671 9.16612 2.50074 9.26272 2.50566 9.36055ZM12.7216 14.4293L12.7202 14.4293H12.7233L12.7216 14.4293Z" fill="#8047F8"/>
</svg>
